<svg version="1.1" xmlns="http://www.w3.org/2000/svg" xmlns:xlink="http://www.w3.org/1999/xlink" x="0px" y="0px" viewBox="0 0 1024 1024" enable-background="new 0 0 1024 1024" xml:space="preserve">
    <path d="M351.791 237.531h192.945c0 45.367-21.387 71.939-21.387 71.939l-167.452 0c3.978 82.183 7.542 187.659 8.817 226.835h159.283c0 0-0.864 67.402-18.578 67.402s-279.98 0-279.98 0 16.851 88.141 39.318 127.054c0 0-83.605 4.511-112.122-106.962s-71.292-178.876-75.828-191.189c-4.536-12.313 24.628-5.833 36.941 0 12.313 5.833 68.051 25.924 84.253 103.696h86.571c1.166-49.287 4.597-200.336 3.515-226.835h-178.227c-25.276-18.147-33.702-71.939-33.702-71.939h203.709c-8.498-56.255-23.417-128.764-44.275-167.21-33.053-60.922-50.552-116.658-169.802-212.577 0 0-19.443-14.258 40.83-9.074 60.274 5.185 117.306 20.739 156.84 99.807 20.553 41.107 41.805 93.251 58.387 146.138l-0.055-0.185 167.856-193.264c0 0 22.036 51.848 5.833 108.881l-124.435 139.342-42.124-31.158-0.045-0.151c11.699 41.020 20.112 81.575 22.727 116.858 0.062 0.849 0.126 1.716 0.188 2.592zM584.919 617.966v-668.84h70.319l28.807-80.513 121.876 80.513h153.6l-0 668.84h-374.602zM887.15 21.065h-79.837l-99.579-65.782-23.537 65.782h-24.855l-0 522.261h227.807v-522.261z" transform="translate(0, 812) scale(1, -1)"/>
</svg>
